<svg width="512" height="512" viewBox="0 0 512 512" fill="none" xmlns="http://www.w3.org/2000/svg">
	<path d="M404.532 107.928H391.869V78.4545C391.869 61.1108 377.758 47 360.413 47H112.279C94.9353 47 80.8245 61.1108 80.8245 78.4545V156.956C80.8245 174.3 94.9353 188.411 112.279 188.411H360.413C377.758 188.411 391.869 174.3 391.869 156.956V124.256H404.532C410.221 124.256 414.848 128.869 414.848 134.542V216.902C414.848 222.573 410.221 227.187 404.532 227.187H236.347C231.838 227.187 228.183 230.843 228.183 235.351V278.519H205.407C200.899 278.519 197.243 282.175 197.243 286.683V439.424C197.243 453.526 208.717 465 222.819 465H249.873C263.975 465 275.448 453.526 275.448 439.424V286.683C275.448 282.175 271.793 278.519 267.284 278.519H244.51V243.516H404.531C419.222 243.516 431.175 231.577 431.175 216.902V134.542C431.175 119.867 419.223 107.928 404.532 107.928V107.928ZM375.541 156.957C375.541 165.298 368.754 172.083 360.413 172.083H112.279C103.938 172.083 97.1526 165.297 97.1526 156.957V78.4545C97.1526 70.1141 103.938 63.3281 112.279 63.3281H360.413C368.755 63.3281 375.541 70.1141 375.541 78.4545V156.957ZM259.12 439.424C259.12 444.524 254.972 448.672 249.873 448.672H222.819C217.72 448.672 213.571 444.524 213.571 439.424V294.847H259.12V439.424Z" fill="black"/>
</svg>