<svg width="512" height="512" viewBox="0 0 512 512" fill="none" xmlns="http://www.w3.org/2000/svg">
	<path d="M355.904 177.776L350.768 160.872C344.244 141.67 323.389 131.393 304.187 137.917C293.385 141.587 284.902 150.07 281.232 160.872L276.096 177.776C271.774 192.032 270.867 207.105 273.448 221.776C275.802 234.128 283.644 244.74 294.76 250.616L289.008 379.2C288.238 386.377 290.566 393.542 295.408 398.896C305.821 410.286 323.497 411.078 334.887 400.665C335.503 400.102 336.093 399.512 336.656 398.896C341.39 393.694 343.714 386.739 343.056 379.736L337.272 250.6C348.373 244.721 356.202 234.116 358.552 221.776C361.133 207.105 360.226 192.032 355.904 177.776ZM342.792 218.992C341.06 227.866 334.736 235.147 326.192 238.104C322.949 239.323 320.86 242.491 321.016 245.952L327.096 381C327.376 383.649 326.502 386.29 324.696 388.248C319.879 393.017 312.121 393.017 307.304 388.248C305.408 386.132 304.547 383.284 304.952 380.472L310.984 245.952C311.14 242.491 309.051 239.323 305.808 238.104C297.264 235.147 290.94 227.866 289.208 218.992C287.068 206.812 287.822 194.299 291.408 182.464L296.544 165.552C300.518 154.807 312.45 149.318 323.196 153.292C328.877 155.393 333.355 159.872 335.456 165.552L340.592 182.464C344.174 194.3 344.928 206.812 342.792 218.992Z" fill="black"/>
	<path d="M232 136C227.582 136 224 139.582 224 144V212.688L202.344 234.344C200.742 235.94 199.89 238.141 200 240.4L207 380.4C207.167 383.419 206.071 386.372 203.976 388.552C199.597 392.97 192.465 393.002 188.046 388.622C188.022 388.599 187.999 388.575 187.976 388.552C185.88 386.372 184.785 383.419 184.952 380.4L192 240.4C192.112 238.142 191.263 235.942 189.664 234.344L168 212.688V144C168 139.582 164.418 136 160 136C155.582 136 152 139.582 152 144V216C152 218.122 152.844 220.156 154.344 221.656L175.832 243.152L169.008 379.624C168.282 394.531 179.778 407.205 194.685 407.931C209.592 408.657 222.266 397.161 222.992 382.254C223.035 381.378 223.035 380.501 222.992 379.625L216.168 243.153L237.656 221.657C239.156 220.157 240 218.123 240 216.001V144.001C240 139.582 236.418 136 232 136Z" fill="black"/>
	<path d="M184 136C179.582 136 176 139.582 176 144V208C176 212.418 179.582 216 184 216C188.418 216 192 212.418 192 208V144C192 139.582 188.418 136 184 136Z" fill="black"/>
	<path d="M208 136C203.582 136 200 139.582 200 144V208C200 212.418 203.582 216 208 216C212.418 216 216 212.418 216 208V144C216 139.582 212.418 136 208 136Z" fill="black"/>
	<path d="M256 16C123.452 16 16 123.452 16 256C16 388.548 123.452 496 256 496C388.548 496 496 388.548 496 256C495.85 123.514 388.486 16.15 256 16ZM256 480C132.288 480 32 379.712 32 256C32 132.288 132.288 32 256 32C379.712 32 480 132.288 480 256C479.859 379.653 379.653 479.859 256 480Z" fill="black"/>
	<path d="M281.969 406.172C281.54 401.775 277.627 398.558 273.229 398.987C273.126 398.997 273.023 399.009 272.92 399.023L272.952 399.015C261.689 400.323 250.311 400.323 239.048 399.015C234.658 398.5 230.683 401.641 230.168 406.031C229.653 410.421 232.794 414.396 237.184 414.911C249.675 416.37 262.293 416.37 274.784 414.911C279.181 414.483 282.398 410.57 281.969 406.172Z" fill="black"/>
	<path d="M378.4 152.912C375.561 149.527 370.515 149.084 367.13 151.924C367.119 151.933 367.108 151.943 367.096 151.952C363.719 154.8 363.289 159.846 366.136 163.224C414.371 220.484 410.681 305.153 357.648 358C354.518 361.119 354.509 366.186 357.628 369.316C360.747 372.446 365.814 372.455 368.944 369.336C427.881 310.623 431.991 216.541 378.4 152.912Z" fill="black"/>
	<path d="M202.392 121.744C202.387 121.744 202.382 121.743 202.377 121.743C202.369 121.743 202.361 121.744 202.352 121.744H202.392Z" fill="black"/>
	<path d="M293.736 100.472C262.471 92.979 229.681 94.993 199.568 106.256C195.432 107.811 193.341 112.425 194.896 116.56C196.068 119.677 199.048 121.74 202.377 121.743C203.334 121.738 204.282 121.563 205.176 121.224C232.294 111.083 261.822 109.272 289.976 116.024C294.271 117.062 298.594 114.423 299.632 110.128C300.67 105.833 298.031 101.51 293.736 100.472Z" fill="black"/>
	<path d="M153.992 357.6C127.023 330.677 111.908 294.108 112 256C111.921 225.554 121.565 195.878 139.528 171.296C142.183 167.764 141.472 162.749 137.94 160.094C134.408 157.439 129.393 158.15 126.738 161.682C126.691 161.745 126.645 161.808 126.6 161.872C80.347 225.46 87.153 313.231 142.656 368.928C145.784 372.058 150.858 372.06 153.988 368.932C157.118 365.804 157.12 360.73 153.992 357.6Z" fill="black"/>
</svg>