<svg width="512" height="512" viewBox="0 0 512 512" fill="none" xmlns="http://www.w3.org/2000/svg">
	<path d="M97.8599 87.8276C97.2012 87.1688 96.4192 86.6463 95.5585 86.2898C94.6978 85.9332 93.7753 85.7497 92.8437 85.7497C91.9122 85.7497 90.9897 85.9332 90.129 86.2898C89.2683 86.6463 88.4863 87.1688 87.8276 87.8276L66.5463 109.109C65.8876 109.768 65.365 110.55 65.0085 111.41C64.652 112.271 64.4685 113.193 64.4685 114.125C64.4685 115.057 64.652 115.979 65.0085 116.84C65.365 117.7 65.8876 118.482 66.5463 119.141L132.468 185.062H114.125C112.244 185.062 110.439 185.81 109.109 187.14C107.779 188.471 107.031 190.275 107.031 192.156V220.531C107.031 222.413 107.779 224.217 109.109 225.547C110.439 226.878 112.244 227.625 114.125 227.625V263.094C114.144 280.02 120.876 296.248 132.845 308.217C144.814 320.186 161.042 326.918 177.969 326.937H217.593L192.433 352.096C180.053 343.741 165.134 339.995 150.276 341.512C135.418 343.029 121.564 349.712 111.128 360.396C100.692 371.08 94.3367 385.088 93.1699 399.978C92.003 414.867 96.0987 429.694 104.743 441.874C113.387 454.053 126.031 462.813 140.472 466.625C154.912 470.438 170.233 469.062 183.763 462.737C197.292 456.412 208.173 445.539 214.509 432.014C220.844 418.489 222.232 403.17 218.431 388.727L267.439 339.724C273.87 341.592 280.701 341.592 287.133 339.724L350.799 403.39C347.237 414.012 347.368 425.526 351.171 436.064C354.974 446.602 362.226 455.545 371.75 461.444C381.275 467.343 392.513 469.85 403.641 468.56C414.77 467.269 425.136 462.256 433.058 454.335C440.98 446.413 445.992 436.047 447.283 424.918C448.573 413.79 446.066 402.551 440.167 393.027C434.269 383.502 425.325 376.25 414.787 372.447C404.249 368.644 392.735 368.513 382.114 372.076L336.97 326.937H376.594C393.52 326.918 409.748 320.186 421.717 308.217C433.686 296.248 440.419 280.02 440.438 263.094V227.625C442.319 227.625 444.123 226.878 445.454 225.547C446.784 224.217 447.531 222.413 447.531 220.531V192.156C447.531 190.275 446.784 188.471 445.454 187.14C444.123 185.81 442.319 185.062 440.438 185.062H437.025C420.431 160.161 426.054 130.002 426.113 129.704C426.47 127.916 426.126 126.059 425.151 124.519C424.176 122.979 422.645 121.873 420.876 121.431C370.442 108.822 369.515 66.2466 369.5 64.4687C369.5 63.3226 369.222 62.1935 368.69 61.1781C368.159 60.1628 367.389 59.2914 366.447 58.6386C365.504 57.9858 364.418 57.571 363.281 57.4297C362.143 57.2884 360.989 57.4248 359.915 57.8272C307.526 77.4698 260.582 44.8341 260.123 44.5087C259.287 43.9145 258.332 43.509 257.323 43.3204C256.315 43.1318 255.278 43.1645 254.283 43.4163V43.3994L225.908 50.4932C224.997 50.7205 224.14 51.1266 223.386 51.688C222.633 52.2493 221.999 52.9546 221.52 53.7631C221.042 54.5715 220.729 55.4669 220.599 56.3973C220.47 57.3277 220.526 58.2746 220.765 59.183L253.892 185.062H195.095L97.8599 87.8276ZM250.227 282.757L109.97 142.5L121.219 131.251L263.116 273.148C258.144 275.328 253.735 278.614 250.227 282.757V282.757ZM92.8437 102.875L111.186 121.219L99.9375 132.468L81.5939 114.125L92.8437 102.875ZM121.219 199.25H146.655L160.843 213.437H121.219V199.25ZM177.969 312.75C164.804 312.735 152.182 307.499 142.873 298.19C133.564 288.881 128.327 276.259 128.312 263.094V227.625H175.03L243.214 295.814C242.574 298.022 242.153 300.288 241.954 302.579L231.78 312.75H177.969ZM156.687 454.625C146.866 454.625 137.266 451.713 129.1 446.256C120.934 440.8 114.569 433.045 110.811 423.971C107.053 414.898 106.069 404.914 107.985 395.281C109.901 385.649 114.631 376.801 121.575 369.856C128.52 362.912 137.368 358.183 147 356.267C156.632 354.351 166.617 355.334 175.69 359.092C184.764 362.851 192.519 369.215 197.975 377.381C203.431 385.547 206.344 395.148 206.344 404.969C206.329 418.134 201.093 430.756 191.783 440.065C182.474 449.374 169.853 454.61 156.687 454.625V454.625ZM212.71 374.381C210.115 369.656 206.935 365.277 203.246 361.347L244.773 319.819C246.953 324.791 250.239 329.199 254.382 332.707L212.71 374.381ZM256 305.656C256 301.447 257.248 297.333 259.587 293.833C261.925 290.333 265.249 287.606 269.137 285.995C273.026 284.384 277.305 283.963 281.433 284.784C285.561 285.605 289.353 287.632 292.329 290.608C295.306 293.584 297.332 297.376 298.154 301.504C298.975 305.633 298.553 309.912 296.943 313.8C295.332 317.689 292.604 321.013 289.104 323.351C285.605 325.689 281.49 326.937 277.281 326.937C271.639 326.931 266.23 324.687 262.24 320.697C258.251 316.708 256.007 311.298 256 305.656V305.656ZM433.344 419.156C433.344 426.171 431.264 433.029 427.366 438.862C423.469 444.694 417.929 449.241 411.448 451.925C404.967 454.61 397.836 455.312 390.955 453.943C384.075 452.575 377.755 449.197 372.795 444.236C367.834 439.276 364.456 432.956 363.088 426.076C361.719 419.196 362.422 412.064 365.106 405.583C367.791 399.102 372.337 393.562 378.17 389.665C384.002 385.768 390.86 383.687 397.875 383.687C407.279 383.698 416.294 387.438 422.944 394.088C429.593 400.737 433.333 409.753 433.344 419.156V419.156ZM357.618 390.144L300.185 332.711C304.327 329.202 307.614 324.794 309.794 319.822L368.867 378.895C364.542 382.021 360.744 385.819 357.618 390.144V390.144ZM426.25 263.094C426.235 276.259 420.999 288.881 411.69 298.19C402.381 307.499 389.759 312.735 376.594 312.75H322.782L312.608 302.575C311.873 294.27 308.239 286.489 302.344 280.594C296.449 274.698 288.667 271.065 280.363 270.329L237.657 227.625H426.25V263.094ZM420.589 185.062H321.519L410.933 140.355C410.679 151.673 412.156 168.588 420.589 185.062ZM400.866 129.526L308.805 175.557L359.223 84.8056C360.32 88.0364 361.634 91.1893 363.156 94.243C368.925 105.783 379.978 120.204 400.866 129.526ZM347.864 76.0333L293.993 173.003L266.907 64.6665C283.939 72.9218 313.752 83.1076 347.864 76.0333ZM236.315 62.518L250.84 58.8824L282.383 185.062H268.562L236.315 62.518ZM433.344 199.25V213.437H223.47L209.282 199.25H433.344Z" fill="black"/>
	<path d="M397.875 440.438C402.084 440.438 406.199 439.189 409.698 436.851C413.198 434.513 415.926 431.189 417.536 427.3C419.147 423.412 419.568 419.133 418.747 415.004C417.926 410.876 415.899 407.084 412.923 404.108C409.947 401.132 406.155 399.105 402.027 398.284C397.899 397.463 393.62 397.884 389.731 399.495C385.842 401.106 382.519 403.833 380.18 407.333C377.842 410.833 376.594 414.947 376.594 419.156C376.6 424.798 378.845 430.208 382.834 434.197C386.824 438.187 392.233 440.431 397.875 440.438V440.438ZM397.875 412.063C399.278 412.063 400.65 412.479 401.816 413.258C402.983 414.037 403.892 415.145 404.429 416.442C404.966 417.738 405.106 419.164 404.832 420.54C404.559 421.916 403.883 423.18 402.891 424.172C401.899 425.164 400.635 425.84 399.259 426.114C397.883 426.387 396.457 426.247 395.16 425.71C393.864 425.173 392.756 424.264 391.977 423.097C391.197 421.931 390.781 420.559 390.781 419.156C390.783 417.276 391.531 415.472 392.861 414.143C394.191 412.813 395.994 412.065 397.875 412.063V412.063Z" fill="black"/>
	<path d="M156.687 369.5C149.672 369.5 142.815 371.58 136.982 375.478C131.149 379.375 126.603 384.914 123.919 391.395C121.234 397.877 120.532 405.008 121.9 411.888C123.269 418.769 126.647 425.089 131.607 430.049C136.568 435.009 142.888 438.387 149.768 439.756C156.648 441.125 163.78 440.422 170.261 437.738C176.742 435.053 182.281 430.507 186.179 424.674C190.076 418.841 192.156 411.984 192.156 404.969C192.146 395.565 188.405 386.55 181.756 379.9C175.107 373.251 166.091 369.511 156.687 369.5V369.5ZM156.687 426.25C152.478 426.25 148.364 425.002 144.864 422.663C141.365 420.325 138.637 417.001 137.026 413.113C135.415 409.224 134.994 404.945 135.815 400.817C136.636 396.689 138.663 392.897 141.639 389.921C144.616 386.944 148.408 384.918 152.536 384.096C156.664 383.275 160.943 383.697 164.831 385.307C168.72 386.918 172.044 389.646 174.382 393.146C176.721 396.645 177.969 400.76 177.969 404.969C177.962 410.611 175.718 416.02 171.728 420.01C167.739 423.999 162.33 426.243 156.687 426.25V426.25Z" fill="black"/>
</svg>