<svg width="512" height="512" viewBox="0 0 512 512" fill="none" xmlns="http://www.w3.org/2000/svg">
	<path d="M405.487 201.951C390.723 201.951 376.486 205.115 363.304 210.388L345.376 175.587V120.221C345.376 117.057 343.267 113.894 340.103 112.839L297.92 97.0203C293.701 95.4384 289.483 97.5476 287.901 101.766C286.319 105.984 288.428 110.203 292.647 111.784L330.084 125.494V170.314H175.588V155.022H194.571C198.789 155.022 202.48 151.331 202.48 147.113C202.48 142.895 198.789 139.204 194.571 139.204H145.532C141.314 139.204 137.623 142.895 137.623 147.113C137.623 151.331 141.314 155.022 145.532 155.022H159.769V176.641L144.478 209.861C132.877 205.115 119.695 202.479 106.513 202.479C47.9835 202.479 0 249.935 0 308.991C0 368.048 47.4562 415.504 106.513 415.504C162.406 415.504 208.28 371.739 212.498 316.901H246.772C249.409 316.901 251.518 315.846 253.1 313.737L335.885 194.042L349.067 218.825C319.011 236.753 298.974 270.499 298.974 308.464C298.974 366.994 346.43 414.977 405.487 414.977C464.544 414.977 512 367.521 512 308.464C512 249.408 464.544 201.951 405.487 201.951ZM106.513 399.158C56.4202 399.158 15.8187 358.557 15.8187 308.464C15.8187 258.371 56.4202 217.77 106.513 217.77C117.586 217.77 128.132 219.879 137.623 223.57L99.1308 305.3C99.1308 305.3 99.1308 305.3 99.1308 305.828C98.6035 306.882 98.6035 307.41 98.6035 308.464C98.6035 308.464 98.6035 308.464 98.6035 308.991C98.6035 310.046 98.6035 310.573 99.1308 311.628V312.155C99.1308 312.683 99.1308 312.683 99.6581 313.21C99.6581 313.737 100.185 313.737 100.713 314.264C100.713 314.264 100.713 314.264 100.713 314.792C101.24 315.319 102.295 315.846 102.822 316.374H103.349C104.404 316.901 104.931 316.901 105.986 316.901H196.152C192.461 362.775 153.969 399.158 106.513 399.158ZM118.641 300.555L151.86 230.425C176.643 244.662 194.043 270.499 196.68 300.555H118.641V300.555ZM242.554 300.555H211.971C209.335 264.172 188.243 233.062 158.187 215.661L172.424 185.605H321.648L242.554 300.555ZM404.96 399.158C354.867 399.158 314.266 358.557 314.266 308.464C314.266 276.299 331.139 248.353 356.449 232.007L398.105 312.155C399.687 314.792 402.323 316.374 404.96 316.374C406.014 316.374 407.596 315.846 408.651 315.319C412.342 313.21 413.924 308.464 411.815 304.773L370.159 224.625C381.232 220.407 392.832 217.77 404.96 217.77C455.053 217.77 495.654 258.371 495.654 308.464C495.654 358.557 455.053 399.158 404.96 399.158Z" fill="black"/>
</svg>