<svg width="512" height="512" viewBox="0 0 512 512" fill="none" xmlns="http://www.w3.org/2000/svg">
	<path d="M345.455 297.936H166.545C161.572 297.935 156.656 296.874 152.125 294.822C147.595 292.77 143.555 289.775 140.274 286.037C136.994 282.298 134.549 277.903 133.103 273.145C131.657 268.386 131.243 263.374 131.888 258.442L159.896 44.2811C161.012 35.871 165.139 28.1509 171.514 22.5526C177.888 16.9544 186.076 13.858 194.56 13.8378H317.44C325.924 13.858 334.112 16.9544 340.486 22.5526C346.861 28.1509 350.989 35.871 352.104 44.2811L380.112 258.463C380.757 263.394 380.343 268.407 378.897 273.165C377.451 277.924 375.006 282.319 371.726 286.057C368.445 289.796 364.405 292.791 359.875 294.843C355.344 296.895 350.428 297.956 345.455 297.956V297.936ZM194.56 27.6757C189.436 27.6861 184.49 29.5541 180.639 32.9333C176.788 36.3125 174.293 40.9736 173.616 46.0523L145.609 260.234C145.218 263.214 145.467 266.242 146.341 269.118C147.214 271.993 148.691 274.649 150.673 276.908C152.654 279.167 155.095 280.976 157.833 282.216C160.57 283.456 163.54 284.098 166.545 284.098H345.455C348.46 284.098 351.43 283.456 354.167 282.216C356.905 280.976 359.346 279.167 361.327 276.908C363.309 274.649 364.786 271.993 365.659 269.118C366.533 266.242 366.782 263.214 366.391 260.234L338.384 46.0592C337.709 40.9793 335.214 36.3165 331.363 32.9359C327.511 29.5553 322.565 27.6863 317.44 27.6757H194.56Z" fill="black"/>
	<path d="M273.297 327.728H238.703C236.868 327.728 235.108 326.999 233.81 325.702C232.513 324.404 231.784 322.645 231.784 320.81V291.017C231.784 289.182 232.513 287.422 233.81 286.124C235.108 284.827 236.868 284.098 238.703 284.098H273.297C275.132 284.098 276.892 284.827 278.19 286.124C279.487 287.422 280.216 289.182 280.216 291.017V320.81C280.216 322.645 279.487 324.404 278.19 325.702C276.892 326.999 275.132 327.728 273.297 327.728ZM245.622 313.891H266.378V297.936H245.622V313.891Z" fill="black"/>
	<path d="M269.547 429.174H242.39C240.555 429.174 238.796 428.445 237.498 427.147C236.201 425.85 235.472 424.09 235.472 422.255V367.595C235.472 365.76 236.201 364 237.498 362.703C238.796 361.405 240.555 360.676 242.39 360.676H269.547C271.382 360.676 273.142 361.405 274.44 362.703C275.737 364 276.466 365.76 276.466 367.595V422.255C276.466 424.09 275.737 425.85 274.44 427.147C273.142 428.445 271.382 429.174 269.547 429.174ZM249.309 415.336H262.628V374.514H249.309V415.336Z" fill="black"/>
	<path d="M370.093 374.486H141.907C136.737 374.479 131.781 372.422 128.126 368.765C124.471 365.109 122.415 360.152 122.41 354.982V333.388C122.415 328.219 124.471 323.263 128.126 319.607C131.782 315.952 136.738 313.896 141.907 313.891H370.093C375.262 313.896 380.218 315.952 383.874 319.607C387.529 323.263 389.585 328.219 389.59 333.388V354.982C389.585 360.152 387.529 365.109 383.874 368.765C380.219 372.422 375.263 374.479 370.093 374.486V374.486ZM141.907 327.728C140.407 327.73 138.968 328.327 137.907 329.388C136.846 330.449 136.249 331.888 136.247 333.388V354.982C136.249 356.483 136.846 357.922 137.907 358.984C138.967 360.047 140.406 360.645 141.907 360.649H370.093C371.594 360.645 373.033 360.047 374.093 358.984C375.154 357.922 375.751 356.483 375.753 354.982V333.388C375.751 331.888 375.154 330.449 374.093 329.388C373.032 328.327 371.593 327.73 370.093 327.728H141.907Z" fill="black"/>
	<path d="M256 498.162C251.72 498.162 247.535 496.893 243.976 494.515C240.417 492.137 237.643 488.757 236.005 484.802C234.367 480.847 233.938 476.496 234.773 472.298C235.609 468.099 237.67 464.243 240.697 461.216C243.723 458.19 247.58 456.128 251.778 455.293C255.976 454.458 260.328 454.887 264.282 456.525C268.237 458.163 271.617 460.937 273.995 464.496C276.373 468.055 277.642 472.239 277.642 476.52C277.637 482.258 275.355 487.76 271.297 491.817C267.24 495.875 261.738 498.157 256 498.162V498.162ZM256 468.715C254.456 468.715 252.947 469.173 251.664 470.031C250.381 470.888 249.38 472.107 248.79 473.533C248.199 474.959 248.044 476.528 248.345 478.042C248.647 479.556 249.39 480.947 250.481 482.038C251.573 483.13 252.963 483.873 254.477 484.174C255.991 484.476 257.561 484.321 258.987 483.73C260.413 483.14 261.632 482.139 262.489 480.856C263.347 479.572 263.805 478.063 263.805 476.52C263.803 474.45 262.98 472.466 261.517 471.003C260.053 469.54 258.069 468.717 256 468.715V468.715Z" fill="black"/>
	<path d="M256 468.715C254.165 468.715 252.405 467.986 251.108 466.689C249.81 465.391 249.081 463.631 249.081 461.796V422.22C249.081 420.385 249.81 418.625 251.108 417.328C252.405 416.03 254.165 415.301 256 415.301C257.835 415.301 259.595 416.03 260.892 417.328C262.19 418.625 262.919 420.385 262.919 422.22V461.796C262.919 463.631 262.19 465.391 260.892 466.689C259.595 467.986 257.835 468.715 256 468.715Z" fill="black"/>
	<path d="M170.053 469.103C168.908 469.103 167.781 468.818 166.773 468.275C165.765 467.732 164.908 466.948 164.277 465.992C163.647 465.036 163.264 463.939 163.162 462.798C163.061 461.658 163.244 460.51 163.695 459.458C174.454 434.356 204.177 418.262 245.241 415.301C247.072 415.169 248.879 415.77 250.267 416.97C251.655 418.171 252.509 419.874 252.641 421.705C252.773 423.535 252.173 425.343 250.972 426.731C249.771 428.118 248.068 428.972 246.237 429.104C210.515 431.678 185.067 444.727 176.412 464.91C175.878 466.154 174.992 467.215 173.861 467.96C172.731 468.705 171.407 469.103 170.053 469.103V469.103Z" fill="black"/>
	<path d="M166.497 498.162C162.216 498.162 158.032 496.893 154.473 494.515C150.914 492.137 148.14 488.757 146.502 484.802C144.864 480.847 144.435 476.496 145.27 472.298C146.105 468.099 148.167 464.243 151.193 461.216C154.22 458.19 158.076 456.128 162.275 455.293C166.473 454.458 170.824 454.887 174.779 456.525C178.734 458.163 182.114 460.937 184.492 464.496C186.87 468.055 188.139 472.239 188.139 476.52C188.134 482.258 185.852 487.76 181.794 491.817C177.737 495.875 172.235 498.157 166.497 498.162V498.162ZM166.497 468.715C164.953 468.715 163.444 469.173 162.161 470.031C160.877 470.888 159.877 472.107 159.286 473.533C158.696 474.959 158.541 476.528 158.842 478.042C159.143 479.556 159.887 480.947 160.978 482.038C162.07 483.13 163.46 483.873 164.974 484.174C166.488 484.476 168.057 484.321 169.484 483.73C170.91 483.14 172.129 482.139 172.986 480.856C173.844 479.572 174.301 478.063 174.301 476.52C174.3 474.45 173.477 472.466 172.013 471.003C170.55 469.54 168.566 468.717 166.497 468.715Z" fill="black"/>
	<path d="M341.947 469.103C340.593 469.103 339.269 468.705 338.139 467.96C337.008 467.215 336.122 466.154 335.588 464.91C326.933 444.727 301.485 431.699 265.763 429.104C263.932 428.972 262.229 428.118 261.028 426.731C259.827 425.343 259.227 423.535 259.359 421.705C259.491 419.874 260.345 418.171 261.733 416.97C263.121 415.77 264.928 415.169 266.759 415.301C307.823 418.262 337.546 434.356 348.305 459.458C348.756 460.51 348.939 461.658 348.838 462.798C348.736 463.939 348.353 465.036 347.723 465.992C347.092 466.948 346.235 467.732 345.227 468.275C344.219 468.818 343.092 469.103 341.947 469.103V469.103Z" fill="black"/>
	<path d="M345.503 498.162C341.223 498.162 337.038 496.893 333.479 494.515C329.92 492.137 327.146 488.757 325.508 484.802C323.87 480.847 323.442 476.496 324.277 472.298C325.112 468.099 327.173 464.243 330.2 461.216C333.226 458.19 337.083 456.128 341.281 455.293C345.479 454.458 349.831 454.887 353.785 456.525C357.74 458.163 361.12 460.937 363.498 464.496C365.876 468.055 367.146 472.239 367.146 476.52C367.14 482.258 364.858 487.76 360.801 491.817C356.743 495.875 351.241 498.157 345.503 498.162V498.162ZM345.503 468.715C343.96 468.715 342.451 469.173 341.167 470.031C339.884 470.888 338.883 472.107 338.293 473.533C337.702 474.959 337.547 476.528 337.849 478.042C338.15 479.556 338.893 480.947 339.984 482.038C341.076 483.13 342.467 483.873 343.981 484.174C345.494 484.476 347.064 484.321 348.49 483.73C349.916 483.14 351.135 482.139 351.992 480.856C352.85 479.572 353.308 478.063 353.308 476.52C353.306 474.45 352.483 472.466 351.02 471.003C349.557 469.54 347.572 468.717 345.503 468.715Z" fill="black"/>
	<path d="M129.328 351.107H106.794C98.5718 351.098 90.6894 347.828 84.8758 342.015C79.0622 336.201 75.7921 328.319 75.7829 320.097V252.291C75.7829 250.456 76.5119 248.697 77.8094 247.399C79.107 246.101 80.8668 245.373 82.7018 245.373C84.5368 245.373 86.2967 246.101 87.5942 247.399C88.8918 248.697 89.6208 250.456 89.6208 252.291V320.097C89.6262 324.65 91.4373 329.014 94.6566 332.234C97.8759 335.453 102.241 337.264 106.794 337.27H129.328C131.163 337.27 132.923 337.999 134.221 339.296C135.518 340.594 136.247 342.354 136.247 344.189C136.247 346.024 135.518 347.783 134.221 349.081C132.923 350.378 131.163 351.107 129.328 351.107V351.107Z" fill="black"/>
	<path d="M88.8458 259.203H66.0134C60.3359 259.203 54.8909 256.948 50.8763 252.933C46.8616 248.919 44.6063 243.474 44.6063 237.796C44.6063 232.119 46.8616 226.674 50.8763 222.659C54.8909 218.645 60.3359 216.389 66.0134 216.389H88.8458C94.5234 216.389 99.9684 218.645 103.983 222.659C107.998 226.674 110.253 232.119 110.253 237.796C110.253 243.474 107.998 248.919 103.983 252.933C99.9684 256.948 94.5234 259.203 88.8458 259.203V259.203ZM66.0134 230.227C64.0059 230.227 62.0806 231.025 60.6611 232.444C59.2416 233.864 58.4441 235.789 58.4441 237.796C58.4441 239.804 59.2416 241.729 60.6611 243.149C62.0806 244.568 64.0059 245.366 66.0134 245.366H88.8458C90.8533 245.366 92.7786 244.568 94.1981 243.149C95.6177 241.729 96.4151 239.804 96.4151 237.796C96.4151 235.789 95.6177 233.864 94.1981 232.444C92.7786 231.025 90.8533 230.227 88.8458 230.227H66.0134Z" fill="black"/>
	<path d="M405.206 351.107H382.672C380.837 351.107 379.077 350.378 377.779 349.081C376.482 347.783 375.753 346.024 375.753 344.189C375.753 342.354 376.482 340.594 377.779 339.296C379.077 337.999 380.837 337.27 382.672 337.27H405.206C409.759 337.264 414.124 335.453 417.343 332.234C420.563 329.014 422.374 324.65 422.379 320.097V252.291C422.379 250.456 423.108 248.697 424.406 247.399C425.703 246.101 427.463 245.373 429.298 245.373C431.133 245.373 432.893 246.101 434.191 247.399C435.488 248.697 436.217 250.456 436.217 252.291V320.097C436.208 328.319 432.938 336.201 427.124 342.015C421.311 347.828 413.428 351.098 405.206 351.107Z" fill="black"/>
	<path d="M445.98 259.203H423.147C417.47 259.203 412.025 256.948 408.01 252.933C403.996 248.919 401.74 243.474 401.74 237.796C401.74 232.119 403.996 226.674 408.01 222.659C412.025 218.645 417.47 216.389 423.147 216.389H445.98C451.657 216.389 457.102 218.645 461.117 222.659C465.131 226.674 467.387 232.119 467.387 237.796C467.387 243.474 465.131 248.919 461.117 252.933C457.102 256.948 451.657 259.203 445.98 259.203V259.203ZM423.147 230.227C421.14 230.227 419.214 231.025 417.795 232.444C416.375 233.864 415.578 235.789 415.578 237.796C415.578 239.804 416.375 241.729 417.795 243.149C419.214 244.568 421.14 245.366 423.147 245.366H445.98C447.987 245.366 449.912 244.568 451.332 243.149C452.752 241.729 453.549 239.804 453.549 237.796C453.549 235.789 452.752 233.864 451.332 232.444C449.912 231.025 447.987 230.227 445.98 230.227H423.147Z" fill="black"/>
</svg>