<svg width="512" height="512" viewBox="0 0 512 512" fill="none" xmlns="http://www.w3.org/2000/svg">
	<path d="M432.703 159.377C436.14 159.377 438.928 156.591 438.928 153.152V83.5778C438.928 61.2031 420.724 43 398.35 43H114.577C92.2031 43 74 61.2031 74 83.5778V427.421C74 449.796 92.2031 468 114.578 468H398.351C420.725 468 438.929 449.796 438.929 427.421V179.681C438.929 176.242 436.141 173.456 432.703 173.456C429.265 173.456 426.478 176.242 426.478 179.681V359.929H371.113C367.675 359.929 364.888 362.715 364.888 366.154C364.888 369.593 367.675 372.379 371.113 372.379H426.478V427.137H86.4502V372.379H141.816C145.253 372.379 148.041 369.593 148.041 366.154C148.041 362.715 145.253 359.929 141.816 359.929H86.4502V134.06H117.34C120.778 134.06 123.565 131.274 123.565 127.835C123.565 124.396 120.778 121.61 117.34 121.61H86.4502V83.5778C86.4502 68.0681 99.0681 55.4502 114.577 55.4502H398.35C413.86 55.4502 426.477 68.0681 426.477 83.5778V121.61H143.869C140.431 121.61 137.644 124.396 137.644 127.835C137.644 131.274 140.431 134.06 143.869 134.06H426.477V153.152C426.477 156.591 429.264 159.377 432.703 159.377V159.377ZM398.35 455.55H114.577C103.422 455.55 93.7635 449.023 89.2192 439.587H423.708C419.163 449.023 409.504 455.55 398.35 455.55Z" fill="black"/>
	<path d="M277.242 89.1405C277.242 77.4548 267.735 67.9478 256.049 67.9478C244.363 67.9478 234.856 77.4548 234.856 89.1405C234.856 100.826 244.363 110.333 256.049 110.333C267.735 110.333 277.242 100.826 277.242 89.1405ZM247.305 89.1405C247.305 84.3198 251.227 80.398 256.048 80.398C260.869 80.398 264.791 84.3206 264.791 89.1405C264.791 93.9604 260.869 97.8831 256.048 97.8831C251.227 97.8831 247.305 93.9604 247.305 89.1405Z" fill="black"/>
	<path d="M219.4 89.1405C219.4 77.4548 209.893 67.9478 198.207 67.9478C186.521 67.9478 177.014 77.4548 177.014 89.1405C177.014 100.826 186.521 110.333 198.207 110.333C209.893 110.333 219.4 100.826 219.4 89.1405ZM189.463 89.1405C189.463 84.3198 193.385 80.398 198.206 80.398C203.027 80.398 206.948 84.3206 206.948 89.1405C206.948 93.9604 203.027 97.8831 198.206 97.8831C193.385 97.8831 189.463 93.9604 189.463 89.1405Z" fill="black"/>
	<path d="M161.557 89.1405C161.557 77.4548 152.05 67.9478 140.365 67.9478C128.679 67.9478 119.171 77.4548 119.171 89.1405C119.171 100.826 128.678 110.333 140.364 110.333C152.05 110.333 161.557 100.826 161.557 89.1405ZM131.621 89.1405C131.621 84.3198 135.543 80.398 140.364 80.398C145.185 80.398 149.106 84.3206 149.106 89.1405C149.106 93.9604 145.185 97.8831 140.364 97.8831C135.543 97.8831 131.621 93.9604 131.621 89.1405Z" fill="black"/>
	<path d="M335.084 89.1405C335.084 77.4548 325.577 67.9478 313.891 67.9478C302.205 67.9478 292.698 77.4548 292.698 89.1405C292.698 100.826 302.205 110.333 313.891 110.333C325.577 110.333 335.084 100.826 335.084 89.1405ZM305.148 89.1405C305.148 84.3198 309.069 80.398 313.89 80.398C318.711 80.398 322.633 84.3206 322.633 89.1405C322.633 93.9604 318.711 97.8831 313.89 97.8831C309.069 97.8831 305.148 93.9604 305.148 89.1405Z" fill="black"/>
	<path d="M392.926 89.1405C392.926 77.4548 383.419 67.9478 371.733 67.9478C360.047 67.9478 350.54 77.4548 350.54 89.1405C350.54 100.826 360.047 110.333 371.733 110.333C383.419 110.333 392.926 100.826 392.926 89.1405ZM362.99 89.1405C362.99 84.3198 366.911 80.398 371.732 80.398C376.553 80.398 380.475 84.3206 380.475 89.1405C380.475 93.9604 376.553 97.8831 371.732 97.8831C366.911 97.8831 362.99 93.9604 362.99 89.1405Z" fill="black"/>
	<path d="M135.954 285.099C132.538 285.486 130.082 288.57 130.47 291.985C137.711 355.842 191.699 403.995 256.048 403.995C325.744 403.995 382.446 347.293 382.446 277.597C382.446 207.901 325.744 151.198 256.049 151.198C224.644 151.198 194.536 162.794 171.269 183.849C148.172 204.752 133.647 233.251 130.37 264.098C130.006 267.516 132.483 270.583 135.903 270.945C139.317 271.307 142.387 268.831 142.75 265.412C145.704 237.615 158.799 211.927 179.624 193.081C200.596 174.101 227.738 163.648 256.049 163.648C318.88 163.648 369.997 214.765 369.997 277.596C369.997 340.428 318.879 391.545 256.049 391.545C198.037 391.545 149.369 348.141 142.841 290.583C142.454 287.166 139.369 284.714 135.954 285.099V285.099Z" fill="black"/>
	<path d="M252.12 176.174C199.512 178.172 156.689 220.944 154.63 273.547C153.54 301.4 163.583 327.807 182.909 347.905C202.25 368.017 228.224 379.094 256.049 379.094C293.042 379.094 327.137 358.896 345.031 326.383C346.588 323.553 346.792 320.208 345.589 317.207C344.386 314.206 341.928 311.928 338.844 310.956L331.083 308.512C329.44 307.994 328.336 306.489 328.336 304.767V250.425C328.336 248.703 329.44 247.198 331.082 246.68L338.844 244.235C341.926 243.265 344.383 240.988 345.586 237.988C346.79 234.982 346.585 231.632 345.023 228.796C326.344 194.87 290.749 174.705 252.12 176.174V176.174ZM333.094 322.199C317.135 349.668 287.806 366.644 256.048 366.644C231.642 366.644 208.854 356.925 191.882 339.275C178.485 325.343 170.177 307.955 167.749 289.216L206.258 273.326C222.53 266.613 240.542 266.392 256.974 272.707L269.157 277.389C284.02 283.102 300.388 284.265 315.885 280.813V304.768C315.885 311.951 320.489 318.228 327.34 320.387H327.341L333.094 322.199ZM327.341 234.806C320.49 236.966 315.885 243.243 315.885 250.426V268C301.983 271.706 287.076 270.937 273.624 265.766L261.441 261.084C242.025 253.623 220.741 253.882 201.51 261.817L167.017 276.05C167.029 275.378 167.045 274.707 167.071 274.034C168.877 227.888 206.443 190.367 252.593 188.615C253.752 188.571 254.903 188.549 256.054 188.549C287.912 188.549 317.029 205.31 333.095 232.995L327.341 234.806Z" fill="black"/>
	<path d="M342.34 260.264V295.774C342.34 299.213 345.127 302 348.565 302C352.003 302 354.79 299.213 354.79 295.774V260.264C354.79 256.825 352.003 254.039 348.565 254.039C345.127 254.039 342.34 256.825 342.34 260.264Z" fill="black"/>
	<path d="M412.245 174.666V158.167C412.245 151.888 407.136 146.778 400.857 146.778H372.546C366.266 146.778 361.157 151.887 361.157 158.167V174.666C361.157 180.945 366.266 186.055 372.546 186.055H400.857C407.136 186.055 412.245 180.945 412.245 174.666V174.666ZM399.795 173.605H373.606V159.229H399.795V173.605Z" fill="black"/>
</svg>